<svg width="40" height="40" viewBox="0 0 40 40" fill="none" xmlns="http://www.w3.org/2000/svg">
<mask id="mask0_101_736" style="mask-type:alpha" maskUnits="userSpaceOnUse" x="9" y="20" width="22" height="15">
<path d="M26.9961 21.8336C24.755 20.0792 23.6797 20.9564 22.5397 21.4019C21.3997 21.8475 20.0006 21.8336 20.0006 21.8336C20.0006 21.8336 18.5886 21.8475 17.4486 21.4019C16.3086 20.9564 15.2333 20.0792 12.9922 21.8336C10.6733 23.6715 9.52036 27.3753 9.61104 29.7841C9.70172 32.1929 10.5308 33.6131 12.2667 33.9891C14.0027 34.365 16.2049 32.0258 17.2283 31.4689C17.604 31.26 18.0704 31.1208 18.5238 31.0233C19.5084 30.8005 20.5059 30.8005 21.4775 31.0233C21.9309 31.1208 22.3972 31.2739 22.7729 31.4689C23.7963 32.0258 25.9986 34.379 27.7345 33.9891C29.4704 33.6131 30.2866 32.1929 30.3902 29.7841C30.468 27.3753 29.3279 23.6715 26.9961 21.8336Z" fill="#808080"/>
</mask>
<g mask="url(#mask0_101_736)">
<path d="M26.9961 21.8336C24.755 20.0792 23.6797 20.9564 22.5397 21.4019C21.3997 21.8475 20.0006 21.8336 20.0006 21.8336C20.0006 21.8336 18.5886 21.8475 17.4486 21.4019C16.3086 20.9564 15.2333 20.0792 12.9922 21.8336C10.6733 23.6715 9.52036 27.3753 9.61104 29.7841C9.70172 32.1929 10.5308 33.6131 12.2667 33.9891C14.0027 34.365 16.2049 32.0258 17.2283 31.4689C17.604 31.26 18.0704 31.1208 18.5238 31.0233C19.5084 30.8005 20.5059 30.8005 21.4775 31.0233C21.9309 31.1208 22.3972 31.2739 22.7729 31.4689C23.7963 32.0258 25.9986 34.379 27.7345 33.9891C29.4704 33.6131 30.2866 32.1929 30.3902 29.7841C30.468 27.3753 29.3279 23.6715 26.9961 21.8336Z" fill="url(#paint0_linear_101_736)"/>
<circle opacity="0.9" cx="15.5122" cy="26.5489" r="3.16645" fill="#079DFB"/>
<path opacity="0.3" d="M18.0043 22.3494C16.0114 21.016 14.5324 20.3275 14.042 20.1499C16.6552 20.1499 17.7296 21.1955 19.8726 21.2322C22.0156 21.2688 22.1987 20.1149 24.6165 20.0599C26.5507 20.016 28.2309 22.5692 28.8292 23.8514C28.237 23.0272 26.6386 21.3787 24.9828 21.3787C22.9131 21.3787 20.4953 24.0162 18.0043 22.3494Z" fill="#BAE4FF"/>
<circle opacity="0.9" cx="24.6444" cy="26.5489" r="3.16645" fill="#079DFB"/>
<path d="M17.0059 25.782H16.0776V24.8147C16.0776 24.4362 15.785 24.1313 15.4217 24.1313C15.0585 24.1313 14.7659 24.4362 14.7659 24.8147V25.782H13.8376C13.4744 25.782 13.1818 26.0869 13.1818 26.4654C13.1818 26.8439 13.4744 27.1488 13.8376 27.1488H14.7659V28.1162C14.7659 28.4947 15.0585 28.7996 15.4217 28.7996C15.785 28.7996 16.0776 28.4947 16.0776 28.1162V27.1488H17.0059C17.3691 27.1488 17.6617 26.8439 17.6617 26.4654C17.6617 26.0869 17.3691 25.782 17.0059 25.782Z" fill="url(#paint1_linear_101_736)"/>
<path d="M23.0177 25.7001C22.6139 25.7001 22.2825 26.0455 22.2825 26.4663C22.2825 26.8872 22.6139 27.2325 23.0177 27.2325C23.4216 27.2325 23.753 26.8872 23.753 26.4663C23.753 26.0455 23.4216 25.7001 23.0177 25.7001Z" fill="url(#paint2_linear_101_736)"/>
<path d="M26.0832 25.7001C25.6793 25.7001 25.3479 26.0455 25.3479 26.4663C25.3479 26.8872 25.6793 27.2325 26.0832 27.2325C26.487 27.2325 26.8184 26.8872 26.8184 26.4663C26.8184 26.0455 26.487 25.7001 26.0832 25.7001Z" fill="url(#paint3_linear_101_736)"/>
<path d="M24.5505 24.1031C24.1466 24.1031 23.8152 24.4484 23.8152 24.8692C23.8152 25.2901 24.1466 25.6354 24.5505 25.6354C24.9543 25.6354 25.2857 25.2901 25.2857 24.8692C25.2857 24.4484 24.9543 24.1031 24.5505 24.1031Z" fill="url(#paint4_linear_101_736)"/>
<path d="M24.5505 27.2864C24.1466 27.2864 23.8152 27.6318 23.8152 28.0526C23.8152 28.4735 24.1466 28.8188 24.5505 28.8188C24.9543 28.8188 25.2857 28.4735 25.2857 28.0526C25.2857 27.6318 24.9543 27.2864 24.5505 27.2864Z" fill="url(#paint5_linear_101_736)"/>
<path opacity="0.9" d="M11.8903 30.2734C10.0052 28.3883 10.3406 26.0702 10.744 25.1468L8.58789 27.4561L9.64324 34.4922H13.7258L17.4572 31.4329C16.387 31.8318 13.7754 32.1585 11.8903 30.2734Z" fill="#079DFB"/>
<path opacity="0.9" d="M28.148 30.2734C30.0331 28.3883 29.6977 26.0702 29.2944 25.1468L31.4504 27.4561L30.3951 34.4922H26.3125L22.5811 31.4329C23.6513 31.8318 26.263 32.1585 28.148 30.2734Z" fill="#079DFB"/>
</g>
<mask id="mask1_101_736" style="mask-type:alpha" maskUnits="userSpaceOnUse" x="9" y="5" width="22" height="15">
<path d="M13.0039 18.1664C15.245 19.9208 16.3203 19.0436 17.4603 18.5981C18.6003 18.1525 19.9994 18.1664 19.9994 18.1664C19.9994 18.1664 21.4114 18.1525 22.5514 18.5981C23.6914 19.0436 24.7667 19.9208 27.0078 18.1664C29.3267 16.3285 30.4796 12.6247 30.389 10.2159C30.2983 7.80709 29.4692 6.38686 27.7333 6.01091C25.9973 5.63497 23.7951 7.97418 22.7717 8.53113C22.396 8.73999 21.9296 8.87922 21.4762 8.97669C20.4916 9.19947 19.4941 9.19947 18.5225 8.97669C18.0691 8.87922 17.6028 8.72606 17.2271 8.53113C16.2037 7.97417 14.0014 5.62104 12.2655 6.01091C10.5296 6.38686 9.71341 7.80709 9.60978 10.2159C9.53205 12.6247 10.6721 16.3285 13.0039 18.1664Z" fill="#808080"/>
</mask>
<g mask="url(#mask1_101_736)">
<path d="M13.0039 18.1664C15.245 19.9208 16.3203 19.0436 17.4603 18.5981C18.6003 18.1525 19.9994 18.1664 19.9994 18.1664C19.9994 18.1664 21.4114 18.1525 22.5514 18.5981C23.6914 19.0436 24.7667 19.9208 27.0078 18.1664C29.3267 16.3285 30.4796 12.6247 30.389 10.2159C30.2983 7.80709 29.4692 6.38686 27.7333 6.01091C25.9973 5.63497 23.7951 7.97418 22.7717 8.53113C22.396 8.73999 21.9296 8.87922 21.4762 8.97669C20.4916 9.19947 19.4941 9.19947 18.5225 8.97669C18.0691 8.87922 17.6028 8.72606 17.2271 8.53113C16.2037 7.97417 14.0014 5.62104 12.2655 6.01091C10.5296 6.38686 9.71341 7.80709 9.60978 10.2159C9.53205 12.6247 10.6721 16.3285 13.0039 18.1664Z" fill="url(#paint6_linear_101_736)"/>
<circle opacity="0.7" cx="24.4879" cy="13.4511" r="3.16645" transform="rotate(-180 24.4879 13.4511)" fill="#DE2832"/>
<path opacity="0.3" d="M21.9957 17.6506C23.9886 18.984 25.4676 19.6725 25.958 19.8501C23.3448 19.8501 22.2704 18.8045 20.1274 18.7678C17.9844 18.7312 17.8013 19.8851 15.3835 19.9401C13.4493 19.984 11.7691 17.4308 11.1708 16.1486C11.763 16.9728 13.3614 18.6213 15.0172 18.6213C17.0869 18.6213 19.5047 15.9838 21.9957 17.6506Z" fill="#BAE4FF"/>
<circle opacity="0.7" cx="15.3556" cy="13.4511" r="3.16645" transform="rotate(-180 15.3556 13.4511)" fill="#DE2832"/>
<path d="M22.9941 14.218L23.9224 14.218L23.9224 15.1853C23.9224 15.5638 24.215 15.8687 24.5783 15.8687C24.9415 15.8687 25.2341 15.5638 25.2341 15.1853L25.2341 14.218L26.1624 14.218C26.5256 14.218 26.8182 13.9131 26.8182 13.5346C26.8182 13.1561 26.5256 12.8511 26.1624 12.8511L25.2341 12.8511L25.2341 11.8838C25.2341 11.5053 24.9415 11.2004 24.5783 11.2004C24.215 11.2004 23.9224 11.5053 23.9224 11.8838L23.9224 12.8511L22.9941 12.8511C22.6309 12.8511 22.3383 13.1561 22.3383 13.5346C22.3383 13.9131 22.6309 14.218 22.9941 14.218Z" fill="url(#paint7_linear_101_736)"/>
<path d="M16.9823 14.2999C17.3861 14.2999 17.7175 13.9545 17.7175 13.5337C17.7175 13.1128 17.3861 12.7675 16.9823 12.7675C16.5784 12.7675 16.247 13.1128 16.247 13.5337C16.247 13.9545 16.5784 14.2999 16.9823 14.2999Z" fill="url(#paint8_linear_101_736)"/>
<path d="M13.9168 14.2999C14.3207 14.2999 14.6521 13.9545 14.6521 13.5337C14.6521 13.1128 14.3207 12.7675 13.9168 12.7675C13.513 12.7675 13.1816 13.1128 13.1816 13.5337C13.1816 13.9545 13.513 14.2999 13.9168 14.2999Z" fill="url(#paint9_linear_101_736)"/>
<path d="M15.4495 15.8969C15.8534 15.8969 16.1848 15.5516 16.1848 15.1308C16.1848 14.7099 15.8534 14.3646 15.4495 14.3646C15.0457 14.3646 14.7143 14.7099 14.7143 15.1308C14.7143 15.5516 15.0457 15.8969 15.4495 15.8969Z" fill="url(#paint10_linear_101_736)"/>
<path d="M15.4495 12.7136C15.8534 12.7136 16.1848 12.3682 16.1848 11.9474C16.1848 11.5265 15.8534 11.1812 15.4495 11.1812C15.0457 11.1812 14.7143 11.5265 14.7143 11.9474C14.7143 12.3682 15.0457 12.7136 15.4495 12.7136Z" fill="url(#paint11_linear_101_736)"/>
<path opacity="0.7" d="M28.1097 9.7266C29.9948 11.6117 29.6594 13.9298 29.256 14.8532L31.4121 12.5439L30.3568 5.50777L26.2742 5.50777L22.5428 8.56711C23.613 8.16816 26.2246 7.84153 28.1097 9.7266Z" fill="#DE2832"/>
<path opacity="0.7" d="M11.852 9.7266C9.96689 11.6117 10.3023 13.9298 10.7056 14.8532L8.54956 12.5438L9.60491 5.50776L13.6875 5.50776L17.4189 8.56711C16.3487 8.16816 13.737 7.84152 11.852 9.7266Z" fill="#DE2832"/>
</g>
<defs>
<linearGradient id="paint0_linear_101_736" x1="20" y1="20.7847" x2="20" y2="34.0324" gradientUnits="userSpaceOnUse">
<stop offset="0.109375" stop-color="#22CDFE"/>
<stop offset="1" stop-color="#11B5FD"/>
</linearGradient>
<linearGradient id="paint1_linear_101_736" x1="15.4217" y1="24.1313" x2="15.4217" y2="28.7996" gradientUnits="userSpaceOnUse">
<stop stop-color="#262653"/>
<stop offset="1" stop-color="#3E3E68"/>
</linearGradient>
<linearGradient id="paint2_linear_101_736" x1="23.0177" y1="25.7001" x2="23.0177" y2="27.2325" gradientUnits="userSpaceOnUse">
<stop stop-color="#262653"/>
<stop offset="1" stop-color="#3E3E68"/>
</linearGradient>
<linearGradient id="paint3_linear_101_736" x1="26.0832" y1="25.7001" x2="26.0832" y2="27.2325" gradientUnits="userSpaceOnUse">
<stop stop-color="#262653"/>
<stop offset="1" stop-color="#3E3E68"/>
</linearGradient>
<linearGradient id="paint4_linear_101_736" x1="24.5505" y1="24.1031" x2="24.5505" y2="25.6354" gradientUnits="userSpaceOnUse">
<stop stop-color="#262653"/>
<stop offset="1" stop-color="#3E3E68"/>
</linearGradient>
<linearGradient id="paint5_linear_101_736" x1="24.5505" y1="27.2864" x2="24.5505" y2="28.8188" gradientUnits="userSpaceOnUse">
<stop stop-color="#262653"/>
<stop offset="1" stop-color="#3E3E68"/>
</linearGradient>
<linearGradient id="paint6_linear_101_736" x1="20" y1="19.2153" x2="20" y2="5.96756" gradientUnits="userSpaceOnUse">
<stop stop-color="#F4615A"/>
<stop offset="1" stop-color="#ED4956"/>
</linearGradient>
<linearGradient id="paint7_linear_101_736" x1="24.5783" y1="15.8687" x2="24.5783" y2="11.2004" gradientUnits="userSpaceOnUse">
<stop stop-color="#262653"/>
<stop offset="1" stop-color="#3E3E68"/>
</linearGradient>
<linearGradient id="paint8_linear_101_736" x1="16.9823" y1="14.2999" x2="16.9823" y2="12.7675" gradientUnits="userSpaceOnUse">
<stop stop-color="#262653"/>
<stop offset="1" stop-color="#3E3E68"/>
</linearGradient>
<linearGradient id="paint9_linear_101_736" x1="13.9168" y1="14.2999" x2="13.9168" y2="12.7675" gradientUnits="userSpaceOnUse">
<stop stop-color="#262653"/>
<stop offset="1" stop-color="#3E3E68"/>
</linearGradient>
<linearGradient id="paint10_linear_101_736" x1="15.4495" y1="15.8969" x2="15.4495" y2="14.3646" gradientUnits="userSpaceOnUse">
<stop stop-color="#262653"/>
<stop offset="1" stop-color="#3E3E68"/>
</linearGradient>
<linearGradient id="paint11_linear_101_736" x1="15.4495" y1="12.7136" x2="15.4495" y2="11.1812" gradientUnits="userSpaceOnUse">
<stop stop-color="#262653"/>
<stop offset="1" stop-color="#3E3E68"/>
</linearGradient>
</defs>
</svg>
