<svg width="40" height="40" viewBox="0 0 40 40" fill="none" xmlns="http://www.w3.org/2000/svg">
<mask id="mask0_101_739" style="mask-type:alpha" maskUnits="userSpaceOnUse" x="9" y="10" width="22" height="20">
<path d="M9.56641 13.8037V10.537C20.5726 10.6876 28.0638 10.4743 30.4336 10.3488V14.3476H28.2202L30.4336 16.3682C29.7173 18.9265 30.0286 21.7406 30.2737 22.8279L27.8114 24.4327L30.4336 25.0984V29.6512C26.545 29.4305 17.5142 29.5592 13.4849 29.6512L13.0644 26.7954L11.4702 29.6512H9.56641C9.91212 27.0205 9.86714 19.5869 9.80144 16.1989L12.2 16.8259L9.56641 13.8037Z" fill="#808080"/>
</mask>
<g mask="url(#mask0_101_739)">
<path d="M9.56641 13.8037V10.537C20.5726 10.6876 28.0638 10.4743 30.4336 10.3488V14.3476H28.2202L30.4336 16.3682C29.7173 18.9265 30.0286 21.7406 30.2737 22.8279L27.8114 24.4327L30.4336 25.0984V29.6512C26.545 29.4305 17.5142 29.5592 13.4849 29.6512L13.0644 26.7954L11.4702 29.6512H9.56641C9.91212 27.0205 9.86714 19.5869 9.80144 16.1989L12.2 16.8259L9.56641 13.8037Z" fill="url(#paint0_linear_101_739)"/>
<path d="M26.3748 13.971H30.9647L32.4469 31.1251H7.5531V13.971L8.98803 11.3486L14.2629 17.4912L9.28488 16.2581L8.53133 29.9704H10.929L13.6463 22.6747L14.1608 29.9704H30.9647V25.0546L25.5499 24.2758L30.5631 22.329L30.9647 16.4861L26.3748 13.971Z" fill="url(#paint1_linear_101_739)"/>
</g>
<path d="M24.1452 24.4732C23.0196 27.6892 17.1598 27.1944 15.7268 24.7559C13.9938 21.8068 17.1598 20.1263 17.1598 18.8893C17.1598 17.6524 15.7268 14.9851 18.736 13.6942C22.4481 12.1018 25.5264 14.7732 25.5264 17.5705C25.5264 19.8084 23.8552 20.6112 23.0196 20.7328" stroke="white" stroke-width="0.8" stroke-linecap="round" stroke-dasharray="2 2"/>
<path fill-rule="evenodd" clip-rule="evenodd" d="M20.6857 19.7665L21.9119 18.5403L22.8312 19.4596L21.605 20.6858L22.8312 21.912L21.9119 22.8313L20.6857 21.605L19.4595 22.8312L18.5403 21.912L19.7665 20.6858L18.5403 19.4596L19.4595 18.5404L20.6857 19.7665Z" fill="url(#paint2_linear_101_739)"/>
<defs>
<linearGradient id="paint0_linear_101_739" x1="20" y1="10.3488" x2="20" y2="29.6512" gradientUnits="userSpaceOnUse">
<stop stop-color="#FFAE5F"/>
<stop offset="1" stop-color="#FFC86D"/>
</linearGradient>
<linearGradient id="paint1_linear_101_739" x1="20" y1="11.3486" x2="20" y2="31.1251" gradientUnits="userSpaceOnUse">
<stop stop-color="#EC9060"/>
<stop offset="1" stop-color="#EC9060" stop-opacity="0.55"/>
</linearGradient>
<linearGradient id="paint2_linear_101_739" x1="20.6857" y1="18.5403" x2="20.6857" y2="22.8313" gradientUnits="userSpaceOnUse">
<stop stop-color="#FF6669"/>
<stop offset="1" stop-color="#FA6689"/>
</linearGradient>
</defs>
</svg>
