<svg width="40" height="40" viewBox="0 0 40 40" fill="none" xmlns="http://www.w3.org/2000/svg">
<path d="M26.117 13.0116H14.8134C13.1565 13.0116 11.8134 14.3547 11.8134 16.0116V28.0426C11.8134 29.6995 13.1565 31.0426 14.8134 31.0426H26.117C27.7738 31.0426 29.117 29.6995 29.117 28.0426V16.0116C29.117 14.3547 27.7738 13.0116 26.117 13.0116Z" fill="#0F69BC"/>
<path d="M26.1171 9.93761H14.8135C13.1566 9.93761 11.8135 11.2808 11.8135 12.9376V24.9686C11.8135 26.6254 13.1566 27.9686 14.8135 27.9686H26.1171C27.7739 27.9686 29.1171 26.6254 29.1171 24.9686V12.9376C29.1171 11.2808 27.7739 9.93761 26.1171 9.93761Z" fill="#53B6FF"/>
<mask id="mask0_101_740" style="mask-type:alpha" maskUnits="userSpaceOnUse" x="11" y="9" width="19" height="19">
<path d="M26.1171 9.93761H14.8135C13.1566 9.93761 11.8135 11.2808 11.8135 12.9376V24.9686C11.8135 26.6254 13.1566 27.9686 14.8135 27.9686H26.1171C27.7739 27.9686 29.1171 26.6254 29.1171 24.9686V12.9376C29.1171 11.2808 27.7739 9.93761 26.1171 9.93761Z" fill="url(#paint0_linear_101_740)"/>
</mask>
<g mask="url(#mask0_101_740)">
<path d="M26.0563 12.0116H13C11.3431 12.0116 10 13.3547 10 15.0116V28.8689C10 30.5257 11.3431 31.8689 13 31.8689H26.0563C27.7131 31.8689 29.0563 30.5257 29.0563 28.8689V15.0116C29.0563 13.3547 27.7131 12.0116 26.0563 12.0116Z" fill="url(#paint1_linear_101_740)"/>
</g>
<path d="M20.4717 24.5444C23.4351 24.5444 25.8374 22.0411 25.8374 18.9532C25.8374 15.8652 23.4351 13.3619 20.4717 13.3619C17.5084 13.3619 15.1061 15.8652 15.1061 18.9532C15.1061 22.0411 17.5084 24.5444 20.4717 24.5444Z" fill="#0E78D9"/>
<path d="M20.4718 22.2355C22.2115 22.2355 23.6218 20.7659 23.6218 18.9531C23.6218 17.1403 22.2115 15.6707 20.4718 15.6707C18.7322 15.6707 17.3219 17.1403 17.3219 18.9531C17.3219 20.7659 18.7322 22.2355 20.4718 22.2355Z" fill="url(#paint2_linear_101_740)"/>
<path d="M14.1258 10.6605L12.5438 12.2991L18.0364 18.0567C18.4705 18.5118 19.1766 18.5139 19.6135 18.0614C20.0503 17.6089 20.0525 16.8731 19.6183 16.418L14.1258 10.6605Z" fill="#BBC7EE"/>
<path d="M13.2388 14.7957C15.0518 14.7957 16.5215 13.2642 16.5215 11.375C16.5215 9.48576 15.0518 7.95425 13.2388 7.95425C11.4258 7.95425 9.95605 9.48576 9.95605 11.375C9.95605 13.2642 11.4258 14.7957 13.2388 14.7957Z" fill="url(#paint3_linear_101_740)"/>
<path opacity="0.3" d="M14.1504 12.0253C14.8737 12.0253 15.4602 11.4143 15.4602 10.6605C15.4602 9.90672 14.8737 9.29565 14.1504 9.29565C13.427 9.29565 12.8406 9.90672 12.8406 10.6605C12.8406 11.4143 13.427 12.0253 14.1504 12.0253Z" fill="white"/>
<defs>
<linearGradient id="paint0_linear_101_740" x1="20.4653" y1="9.93761" x2="20.4653" y2="27.9686" gradientUnits="userSpaceOnUse">
<stop stop-color="#1DA0F9"/>
<stop offset="1" stop-color="#228EFC"/>
</linearGradient>
<linearGradient id="paint1_linear_101_740" x1="19.5281" y1="12.0116" x2="19.5281" y2="31.8689" gradientUnits="userSpaceOnUse">
<stop stop-color="#1DA0F9"/>
<stop offset="1" stop-color="#228EFC"/>
</linearGradient>
<linearGradient id="paint2_linear_101_740" x1="20.4718" y1="15.6707" x2="20.4718" y2="22.2355" gradientUnits="userSpaceOnUse">
<stop stop-color="#D3DEFD"/>
<stop offset="1" stop-color="#8F9ED4"/>
</linearGradient>
<linearGradient id="paint3_linear_101_740" x1="13.2388" y1="7.95425" x2="13.2388" y2="14.7957" gradientUnits="userSpaceOnUse">
<stop stop-color="#F4615A"/>
<stop offset="1" stop-color="#ED4956"/>
</linearGradient>
</defs>
</svg>
