<svg width="40" height="40" viewBox="0 0 40 40" fill="none" xmlns="http://www.w3.org/2000/svg">
<path d="M11.5841 30.503C9.47262 24.8758 11.9867 20.6005 13.7881 19.1816L14.3617 27.7858C13.1057 28.2931 11.9866 29.8086 11.5841 30.503Z" fill="#78BFFF"/>
<path d="M28.4164 30.503C30.5279 24.8758 28.0138 20.6005 26.2124 19.1816L25.6388 27.7858C26.8948 28.2931 28.0139 29.8086 28.4164 30.503Z" fill="#78BFFF"/>
<rect x="15.8025" y="27.803" width="8.37083" height="1.59195" fill="#9167EB"/>
<path d="M15.0828 30.1905C15.0828 29.7509 15.4391 29.3945 15.8787 29.3945H24.0954C24.535 29.3945 24.8914 29.7509 24.8914 30.1905V30.1905C24.8914 30.6301 24.535 30.9865 24.0954 30.9865H15.8787C15.4391 30.9865 15.0828 30.6301 15.0828 30.1905V30.1905Z" fill="#7C53D6"/>
<mask id="mask0_39_312" style="mask-type:alpha" maskUnits="userSpaceOnUse" x="13" y="7" width="14" height="21">
<path d="M14.2631 27.803C13.2046 22.541 12.8675 11.1136 19.9869 7.50001C27.1063 11.1136 26.7695 22.541 25.711 27.803H14.2631Z" fill="#C4C4C4"/>
</mask>
<g mask="url(#mask0_39_312)">
<path d="M14.2631 27.803C13.2046 22.541 12.8675 11.1136 19.9869 7.50001C27.1063 11.1136 26.7695 22.541 25.711 27.803H14.2631Z" fill="#2195FB"/>
<path d="M24.2628 11.7474H15.751C16.822 8.8581 19.0091 7.51255 19.9689 7.20093C22.434 8.02937 23.8586 10.5771 24.2628 11.7474Z" fill="#006FD5"/>
</g>
<ellipse cx="19.9871" cy="26.5929" rx="1.56008" ry="5.90714" fill="#78BFFF"/>
<circle cx="20.0005" cy="16.3047" r="2.32566" fill="#FFB261" stroke="white" stroke-width="0.8"/>
</svg>
