<svg width="40" height="40" viewBox="0 0 40 40" fill="none" xmlns="http://www.w3.org/2000/svg">
<mask id="mask0_101_853" style="mask-type:alpha" maskUnits="userSpaceOnUse" x="10" y="7" width="20" height="26">
<path d="M19.8751 32.0971C19.8751 32.0971 12.2215 32.344 10.8636 24.8139C9.50572 17.2837 17.6531 14.3211 18.0234 7.90195C18.0234 7.90195 24.9363 10.6177 24.566 18.5182C24.566 18.5182 26.2942 17.7775 26.6645 15.8024C26.6645 15.8024 29.6272 18.7651 29.2569 24.3201C29.1334 29.7516 24.4425 32.0971 19.8751 32.0971Z" fill="url(#paint0_linear_101_853)"/>
</mask>
<g mask="url(#mask0_101_853)">
<path d="M19.8751 32.0971C19.8751 32.0971 12.2215 32.344 10.8636 24.8139C9.50572 17.2837 17.6531 14.3211 18.0234 7.90195C18.0234 7.90195 24.9363 10.6177 24.566 18.5182C24.566 18.5182 26.2942 17.7775 26.6645 15.8024C26.6645 15.8024 29.6272 18.7651 29.2569 24.3201C29.1334 29.7516 24.4425 32.0971 19.8751 32.0971Z" fill="url(#paint1_linear_101_853)"/>
<path d="M20.4547 30.8221C14.6494 30.8221 11.2998 26.2593 10.3507 23.9779C10.5005 26.8482 12.5669 32.5889 19.6343 32.5889C26.7017 32.5889 29.0154 28.6766 29.2889 26.7205C28.763 28.0877 26.26 30.8221 20.4547 30.8221Z" fill="#F3545D"/>
<path d="M14.164 17.8443C11.295 20.1104 10.6123 22.6694 10.6297 23.6656C9.74598 19.8714 11.4094 16.8308 14.5799 13.0366C17.1163 10.0012 17.6118 7.73511 17.5425 6.98148C21.5965 6.61766 23.9874 11.6333 26.2743 14.0241C28.0325 15.8623 29.1845 21.1443 29.4869 22.7142C28.7453 18.8727 27.5386 17.7889 27.1289 17.4816C26.7131 18.6667 24.845 20.1745 23.9874 20.9368C24.4292 19.6461 25.0477 16.259 23.9874 13.0366C22.9271 9.81412 20.6177 9.09514 19.5955 9.13846C19.6994 11.7892 17.7503 15.0117 14.164 17.8443Z" fill="#FF7B83"/>
</g>
<mask id="mask1_101_853" style="mask-type:alpha" maskUnits="userSpaceOnUse" x="15" y="18" width="10" height="13">
<path d="M19.9022 30.3789C19.9022 30.3789 16.4793 30.4827 15.6496 27.5784C14.8198 24.6742 16.9979 22.5998 16.9979 22.5998C16.9979 22.5998 17.1017 23.9481 17.8277 24.6742C17.8277 24.6742 17.8277 20.4216 20.9394 18.762C20.9394 18.762 20.732 20.2141 23.325 23.3258C26.0218 26.6449 24.3622 30.3789 19.9022 30.3789Z" fill="url(#paint2_linear_101_853)"/>
</mask>
<g mask="url(#mask1_101_853)">
<path d="M19.9022 30.3789C19.9022 30.3789 16.4793 30.4827 15.6496 27.5784C14.8198 24.6742 16.9979 22.5998 16.9979 22.5998C16.9979 22.5998 17.1017 23.9481 17.8277 24.6742C17.8277 24.6742 17.8277 20.4216 20.9394 18.762C20.9394 18.762 20.732 20.2141 23.325 23.3258C26.0218 26.6449 24.3622 30.3789 19.9022 30.3789Z" fill="url(#paint3_linear_101_853)"/>
<path opacity="0.8" d="M20.7899 28.8347C23.8236 28.0527 24.1849 24.1707 23.608 22.259C24.9844 22.8726 28.0055 28.8347 22.2316 30.5747C17.6125 31.9667 15.3905 29.1707 14.8569 27.5987C15.3183 28.2909 17.2065 29.7584 20.7899 28.8347Z" fill="#FEAB47"/>
</g>
<defs>
<linearGradient id="paint0_linear_101_853" x1="20.3338" y1="7.90195" x2="20.3338" y2="32.098" gradientUnits="userSpaceOnUse">
<stop stop-color="#FC6566"/>
<stop offset="1" stop-color="#F36283"/>
</linearGradient>
<linearGradient id="paint1_linear_101_853" x1="20.3338" y1="7.90195" x2="20.3338" y2="32.098" gradientUnits="userSpaceOnUse">
<stop stop-color="#FC6566"/>
<stop offset="1" stop-color="#F36283"/>
</linearGradient>
<linearGradient id="paint2_linear_101_853" x1="20.0443" y1="18.762" x2="20.0443" y2="30.3794" gradientUnits="userSpaceOnUse">
<stop stop-color="#FFAE5F"/>
<stop offset="1" stop-color="#FFC86D"/>
</linearGradient>
<linearGradient id="paint3_linear_101_853" x1="20.0443" y1="18.762" x2="20.0443" y2="30.3794" gradientUnits="userSpaceOnUse">
<stop stop-color="#FFAE5F"/>
<stop offset="1" stop-color="#FFC86D"/>
</linearGradient>
</defs>
</svg>
