<svg width="40" height="40" viewBox="0 0 40 40" fill="none" xmlns="http://www.w3.org/2000/svg">
<mask id="mask0_101_851" style="mask-type:alpha" maskUnits="userSpaceOnUse" x="9" y="18" width="22" height="14">
<path d="M26.996 19.4438C24.7548 17.6894 23.6796 18.5666 22.5396 19.0122C21.3996 19.4577 20.0005 19.4438 20.0005 19.4438C20.0005 19.4438 18.5885 19.4577 17.4485 19.0122C16.3084 18.5666 15.2332 17.6894 12.9921 19.4438C10.6732 21.2818 9.52024 24.9855 9.61092 27.3943C9.7016 29.8031 10.5307 31.2234 12.2666 31.5993C14.0025 31.9753 16.2048 29.6361 17.2282 29.0791C17.6039 28.8702 18.0703 28.731 18.5237 28.6335C19.5082 28.4108 20.5057 28.4108 21.4773 28.6335C21.9307 28.731 22.3971 28.8842 22.7728 29.0791C23.7962 29.6361 25.9985 31.9892 27.7344 31.5993C29.4703 31.2234 30.2865 29.8031 30.3901 27.3943C30.4678 24.9855 29.3278 21.2818 26.996 19.4438Z" fill="#808080"/>
</mask>
<g mask="url(#mask0_101_851)">
<path d="M26.996 19.4438C24.7548 17.6894 23.6796 18.5666 22.5396 19.0122C21.3996 19.4577 20.0005 19.4438 20.0005 19.4438C20.0005 19.4438 18.5885 19.4577 17.4485 19.0122C16.3084 18.5666 15.2332 17.6894 12.9921 19.4438C10.6732 21.2818 9.52024 24.9855 9.61092 27.3943C9.7016 29.8031 10.5307 31.2234 12.2666 31.5993C14.0025 31.9753 16.2048 29.6361 17.2282 29.0791C17.6039 28.8702 18.0703 28.731 18.5237 28.6335C19.5082 28.4108 20.5057 28.4108 21.4773 28.6335C21.9307 28.731 22.3971 28.8842 22.7728 29.0791C23.7962 29.6361 25.9985 31.9892 27.7344 31.5993C29.4703 31.2234 30.2865 29.8031 30.3901 27.3943C30.4678 24.9855 29.3278 21.2818 26.996 19.4438Z" fill="url(#paint0_linear_101_851)"/>
<circle opacity="0.9" cx="15.512" cy="24.1591" r="3.16645" fill="#079DFB"/>
<path opacity="0.3" d="M18.0041 19.9596C16.0113 18.6262 14.5323 17.9377 14.0419 17.7601C16.6551 17.7601 17.7294 18.8057 19.8724 18.8424C22.0154 18.879 22.1986 17.7251 24.6164 17.6701C26.5506 17.6262 28.2308 20.1794 28.8291 21.4616C28.2369 20.6374 26.6385 18.9889 24.9827 18.9889C22.9129 18.9889 20.4952 21.6264 18.0041 19.9596Z" fill="#BAE4FF"/>
<circle opacity="0.9" cx="24.6442" cy="24.1591" r="3.16645" fill="#079DFB"/>
<path d="M17.0057 23.3922H16.0775V22.4249C16.0775 22.0464 15.7849 21.7415 15.4216 21.7415C15.0584 21.7415 14.7658 22.0464 14.7658 22.4249V23.3922H13.8375C13.4743 23.3922 13.1816 23.6971 13.1816 24.0756C13.1816 24.4541 13.4743 24.759 13.8375 24.759H14.7658V25.7263C14.7658 26.1048 15.0584 26.4097 15.4216 26.4097C15.7849 26.4097 16.0775 26.1048 16.0775 25.7263V24.759H17.0057C17.369 24.759 17.6616 24.4541 17.6616 24.0756C17.6616 23.6971 17.369 23.3922 17.0057 23.3922Z" fill="url(#paint1_linear_101_851)"/>
<path d="M23.0176 23.3103C22.6137 23.3103 22.2823 23.6556 22.2823 24.0765C22.2823 24.4973 22.6137 24.8427 23.0176 24.8427C23.4215 24.8427 23.7529 24.4973 23.7529 24.0765C23.7529 23.6556 23.4215 23.3103 23.0176 23.3103Z" fill="url(#paint2_linear_101_851)"/>
<path d="M26.083 23.3103C25.6792 23.3103 25.3478 23.6556 25.3478 24.0765C25.3478 24.4973 25.6792 24.8427 26.083 24.8427C26.4869 24.8427 26.8183 24.4973 26.8183 24.0765C26.8183 23.6556 26.4869 23.3103 26.083 23.3103Z" fill="url(#paint3_linear_101_851)"/>
<path d="M24.5503 21.7133C24.1465 21.7133 23.8151 22.0586 23.8151 22.4794C23.8151 22.9003 24.1465 23.2456 24.5503 23.2456C24.9542 23.2456 25.2856 22.9003 25.2856 22.4794C25.2856 22.0586 24.9542 21.7133 24.5503 21.7133Z" fill="url(#paint4_linear_101_851)"/>
<path d="M24.5503 24.8966C24.1465 24.8966 23.8151 25.2419 23.8151 25.6628C23.8151 26.0837 24.1465 26.429 24.5503 26.429C24.9542 26.429 25.2856 26.0837 25.2856 25.6628C25.2856 25.2419 24.9542 24.8966 24.5503 24.8966Z" fill="url(#paint5_linear_101_851)"/>
<path opacity="0.9" d="M11.8902 27.8836C10.0051 25.9985 10.3405 23.6804 10.7438 22.757L8.58777 25.0663L9.64311 32.1024H13.7257L17.4571 29.0431C16.3869 29.442 13.7752 29.7687 11.8902 27.8836Z" fill="#079DFB"/>
<path opacity="0.9" d="M28.1479 27.8836C30.033 25.9985 29.6976 23.6804 29.2942 22.757L31.4503 25.0663L30.395 32.1024H26.3124L22.581 29.0431C23.6512 29.442 26.2628 29.7687 28.1479 27.8836Z" fill="#079DFB"/>
</g>
<circle cx="15.0399" cy="9.01143" r="1.92367" fill="#B5C4EC"/>
<mask id="mask1_101_851" style="mask-type:alpha" maskUnits="userSpaceOnUse" x="11" y="11" width="8" height="5">
<path d="M15.0399 11.4414C13.3329 11.4414 11.8769 12.5156 11.3109 14.0249C11.0188 14.8036 11.6414 15.5534 12.4631 15.6817C14.2683 15.9636 15.7049 15.9576 17.595 15.6718C18.4262 15.5462 19.061 14.792 18.7619 14.0065C18.191 12.5069 16.7398 11.4414 15.0399 11.4414Z" fill="#B5C4EC"/>
</mask>
<g mask="url(#mask1_101_851)">
<path d="M15.0399 11.4414C13.3329 11.4414 11.8769 12.5156 11.3109 14.0249C11.0188 14.8036 11.6414 15.5534 12.4631 15.6817C14.2683 15.9636 15.7049 15.9576 17.595 15.6718C18.4262 15.5462 19.061 14.792 18.7619 14.0065C18.191 12.5069 16.7398 11.4414 15.0399 11.4414Z" fill="#B5C4EC"/>
<path d="M18.3962 11.9587C16.4954 11.9587 14.8806 13.1834 14.2978 14.8867C14.0286 15.6736 14.6485 16.4187 15.4695 16.5513C17.5317 16.8842 19.1389 16.8774 21.3005 16.5411C22.131 16.4118 22.7638 15.6621 22.4881 14.8681C21.8999 13.1745 20.29 11.9587 18.3962 11.9587Z" fill="#92A5D8"/>
</g>
<circle r="1.92367" transform="matrix(-1 0 0 1 24.96 9.01143)" fill="#B5C4EC"/>
<mask id="mask2_101_851" style="mask-type:alpha" maskUnits="userSpaceOnUse" x="21" y="11" width="8" height="5">
<path d="M24.96 11.4414C26.667 11.4414 28.123 12.5156 28.689 14.0249C28.981 14.8036 28.3585 15.5534 27.5368 15.6817C25.7316 15.9636 24.295 15.9576 22.4048 15.6718C21.5737 15.5462 20.9389 14.792 21.238 14.0065C21.8089 12.5069 23.26 11.4414 24.96 11.4414Z" fill="#B5C4EC"/>
</mask>
<g mask="url(#mask2_101_851)">
<path d="M24.96 11.4414C26.667 11.4414 28.123 12.5156 28.689 14.0249C28.981 14.8036 28.3585 15.5534 27.5368 15.6817C25.7316 15.9636 24.295 15.9576 22.4048 15.6718C21.5737 15.5462 20.9389 14.792 21.238 14.0065C21.8089 12.5069 23.26 11.4414 24.96 11.4414Z" fill="#B5C4EC"/>
<path d="M21.6037 11.9587C23.5045 11.9587 25.1193 13.1834 25.702 14.8867C25.9713 15.6736 25.3514 16.4187 24.5303 16.5513C22.4682 16.8842 20.861 16.8774 18.6994 16.5411C17.8688 16.4118 17.2361 15.6621 17.5118 14.8681C18.1 13.1745 19.7099 11.9587 21.6037 11.9587Z" fill="#92A5D8"/>
</g>
<circle cx="20" cy="8.40237" r="2.39663" fill="#DBE3FF"/>
<path d="M19.9999 11.4298C17.8733 11.4298 16.0593 12.7681 15.3541 14.6485C14.9903 15.6187 15.7659 16.5528 16.7896 16.7127C19.0387 17.0639 20.8284 17.0564 23.1833 16.7004C24.2188 16.5438 25.0097 15.6042 24.6371 14.6255C23.9258 12.7572 22.1179 11.4298 19.9999 11.4298Z" fill="#DBE3FF"/>
<defs>
<linearGradient id="paint0_linear_101_851" x1="19.9999" y1="18.3949" x2="19.9999" y2="31.6427" gradientUnits="userSpaceOnUse">
<stop offset="0.109375" stop-color="#22CDFE"/>
<stop offset="1" stop-color="#11B5FD"/>
</linearGradient>
<linearGradient id="paint1_linear_101_851" x1="15.4216" y1="21.7415" x2="15.4216" y2="26.4097" gradientUnits="userSpaceOnUse">
<stop stop-color="#262653"/>
<stop offset="1" stop-color="#3E3E68"/>
</linearGradient>
<linearGradient id="paint2_linear_101_851" x1="23.0176" y1="23.3103" x2="23.0176" y2="24.8427" gradientUnits="userSpaceOnUse">
<stop stop-color="#262653"/>
<stop offset="1" stop-color="#3E3E68"/>
</linearGradient>
<linearGradient id="paint3_linear_101_851" x1="26.083" y1="23.3103" x2="26.083" y2="24.8427" gradientUnits="userSpaceOnUse">
<stop stop-color="#262653"/>
<stop offset="1" stop-color="#3E3E68"/>
</linearGradient>
<linearGradient id="paint4_linear_101_851" x1="24.5503" y1="21.7133" x2="24.5503" y2="23.2456" gradientUnits="userSpaceOnUse">
<stop stop-color="#262653"/>
<stop offset="1" stop-color="#3E3E68"/>
</linearGradient>
<linearGradient id="paint5_linear_101_851" x1="24.5503" y1="24.8966" x2="24.5503" y2="26.429" gradientUnits="userSpaceOnUse">
<stop stop-color="#262653"/>
<stop offset="1" stop-color="#3E3E68"/>
</linearGradient>
</defs>
</svg>
