<svg width="40" height="40" viewBox="0 0 40 40" fill="none" xmlns="http://www.w3.org/2000/svg">
<mask id="mask0_101_779" style="mask-type:alpha" maskUnits="userSpaceOnUse" x="11" y="8" width="14" height="12">
<path d="M22.3948 12.3204C22.6193 12.1824 22.8781 12.0953 23.1513 12.0813C23.909 12.0636 24.5841 12.6725 24.6453 13.4287C24.7099 14.2481 24.0841 14.9657 23.2645 15.0077C22.9912 15.0217 22.7456 14.9604 22.5288 14.8449C22.323 14.7394 22.0786 14.8996 22.1008 15.12L22.285 18.5912L18.8493 18.7776C18.6181 18.7894 18.4687 18.5545 18.5637 18.3598C18.6775 18.1219 18.7371 17.8552 18.7226 17.5817C18.6614 16.8254 17.9863 16.2166 17.2286 16.2342C16.4078 16.2552 15.76 16.9528 15.8035 17.7733C15.818 18.0468 15.9044 18.2849 16.0417 18.4888C16.1679 18.6828 16.0341 18.9428 15.8129 18.9435L12.344 19.1L12.1609 15.6498C12.1486 15.4184 12.3831 15.2693 12.5778 15.3648C12.8157 15.4792 13.0823 15.5394 13.3555 15.5254C14.111 15.4656 14.718 14.7912 14.6988 14.0328C14.6763 13.2112 13.978 12.5614 13.1583 12.6033C12.8851 12.6173 12.6473 12.7033 12.4439 12.8403C12.2503 12.9662 11.9903 12.8319 11.9891 12.6104L11.816 9.14923L21.757 8.6404L21.95 12.0795C21.9623 12.3109 22.2013 12.4464 22.3948 12.3204Z" fill="url(#paint0_linear_101_779)"/>
</mask>
<g mask="url(#mask0_101_779)">
<path d="M22.3949 12.3204C22.6194 12.1824 22.8782 12.0953 23.1514 12.0813C23.9092 12.0636 24.5842 12.6725 24.6454 13.4287C24.71 14.2481 24.0842 14.9657 23.2646 15.0077C22.9914 15.0217 22.7458 14.9604 22.5289 14.8449C22.3231 14.7394 22.0787 14.8996 22.1009 15.12L22.2851 18.5912L18.8494 18.7776C18.6182 18.7894 18.4688 18.5545 18.5638 18.3598C18.6776 18.1219 18.7372 17.8552 18.7227 17.5817C18.6615 16.8254 17.9865 16.2166 17.2287 16.2342C16.408 16.2552 15.7601 16.9528 15.8036 17.7733C15.8181 18.0468 15.9045 18.2849 16.0418 18.4888C16.168 18.6828 16.0343 18.9428 15.813 18.9435L12.3441 19.1L12.161 15.6498C12.1488 15.4184 12.3832 15.2693 12.5779 15.3648C12.8158 15.4792 13.0824 15.5394 13.3557 15.5254C14.1112 15.4656 14.7181 14.7912 14.699 14.0328C14.6764 13.2112 13.9781 12.5614 13.1585 12.6033C12.8852 12.6173 12.6475 12.7033 12.444 12.8403C12.2505 12.9662 11.9904 12.8319 11.9892 12.6104L11.8161 9.14923L21.7571 8.6404L21.9501 12.0795C21.9624 12.3109 22.2014 12.4464 22.3949 12.3204Z" fill="url(#paint1_linear_101_779)"/>
<path d="M11.5267 10.4668L22.5741 9.79977V8.13226L11.5267 8.71591V10.4668Z" fill="#1C97EB"/>
</g>
<mask id="mask1_101_779" style="mask-type:alpha" maskUnits="userSpaceOnUse" x="9" y="19" width="15" height="13">
<path d="M21.4353 25.8685C21.6892 25.9398 21.9622 25.9528 22.2291 25.8915C22.9636 25.7014 23.4476 24.9319 23.3001 24.1884C23.1386 23.3834 22.3401 22.8649 21.5393 23.0486C21.2723 23.1099 21.0525 23.2359 20.8752 23.4061C20.7058 23.5637 20.4267 23.4766 20.388 23.2588L19.6179 19.8729L16.2503 20.6455C16.0245 20.6973 15.9447 20.9639 16.0894 21.125C16.2639 21.3225 16.3941 21.5625 16.4548 21.8293C16.6023 22.5727 16.1183 23.3423 15.3838 23.5324C14.5876 23.7366 13.7733 23.2433 13.5913 22.443C13.5306 22.1763 13.5488 21.9238 13.6253 21.6903C13.6939 21.4695 13.4942 21.2562 13.2809 21.3159L9.89749 22.1138L10.6629 25.4791C10.7143 25.7048 10.9807 25.784 11.1422 25.639C11.3401 25.4641 11.5804 25.3334 11.8474 25.2721C12.5912 25.1231 13.3599 25.6053 13.5484 26.3393C13.751 27.1349 13.2559 27.9502 12.455 28.1339C12.1881 28.1951 11.9356 28.1775 11.7023 28.1015C11.4815 28.0334 11.2678 28.2335 11.3271 28.4466L12.0925 31.812L21.8176 29.5917L21.0521 26.2263C21.0134 26.0085 21.2145 25.8004 21.4353 25.8685Z" fill="url(#paint2_linear_101_779)"/>
</mask>
<g mask="url(#mask1_101_779)">
<path d="M21.4352 25.8685C21.689 25.9398 21.962 25.9527 22.229 25.8915C22.9635 25.7014 23.4474 24.9318 23.3 24.1884C23.1385 23.3834 22.34 22.8648 21.5392 23.0486C21.2722 23.1098 21.0524 23.2358 20.8751 23.406C20.7057 23.5636 20.4266 23.4765 20.3879 23.2587L19.6178 19.8729L16.2502 20.6454C16.0244 20.6973 15.9446 20.9639 16.0892 21.125C16.2638 21.3224 16.394 21.5625 16.4547 21.8292C16.6021 22.5727 16.1182 23.3422 15.3837 23.5323C14.5875 23.7366 13.7732 23.2433 13.5911 22.443C13.5305 22.1762 13.5487 21.9238 13.6252 21.6903C13.6938 21.4694 13.494 21.2562 13.2808 21.3159L9.89737 22.1137L10.6628 25.479C10.7141 25.7047 10.9806 25.784 11.1421 25.639C11.34 25.464 11.5803 25.3333 11.8472 25.2721C12.5911 25.123 13.3597 25.6052 13.5483 26.3392C13.7509 27.1348 13.2557 27.9501 12.4549 28.1338C12.188 28.1951 11.9355 28.1774 11.7022 28.1014C11.4814 28.0333 11.2677 28.2335 11.327 28.4466L12.0924 31.8119L21.8175 29.5916L21.052 26.2263C21.0133 26.0084 21.2144 25.8004 21.4352 25.8685Z" fill="url(#paint3_linear_101_779)"/>
<path d="M22.5374 28.2147L11.5232 30.7847L11.9637 32.5836L17.4891 31.4271L23.0146 30.2706L22.5374 28.2147Z" fill="#E3A262"/>
</g>
<mask id="mask2_101_779" style="mask-type:alpha" maskUnits="userSpaceOnUse" x="19" y="17" width="13" height="13">
<path d="M29.3256 17.6595L25.9707 18.44C25.7448 18.4918 25.665 18.7584 25.8097 18.9196C25.9843 19.117 26.1145 19.357 26.1751 19.6238C26.3226 20.3673 25.8387 21.1368 25.1042 21.3269C24.308 21.5312 23.4936 21.0379 23.3116 20.2376C23.2509 19.9708 23.2691 19.7183 23.3457 19.4849C23.4143 19.264 23.2145 19.0507 23.0013 19.1105L19.6132 19.8878L20.3786 23.2531C20.43 23.4788 20.6964 23.558 20.8579 23.413C21.0558 23.2381 21.2961 23.1074 21.563 23.0461C22.3069 22.8971 23.0756 23.3793 23.2641 24.1133C23.4667 24.9089 22.9716 25.7242 22.1707 25.9079C21.9038 25.9691 21.6513 25.9515 21.418 25.8755C21.1972 25.8074 20.9835 26.0075 21.0428 26.2206L21.8129 29.6065L31.5459 27.3736L29.3256 17.6595Z" fill="#F5637D"/>
</mask>
<g mask="url(#mask2_101_779)">
<path d="M29.3255 17.6595L25.9706 18.44C25.7447 18.4918 25.6649 18.7584 25.8096 18.9195C25.9841 19.117 26.1144 19.357 26.175 19.6237C26.3225 20.3672 25.8386 21.1367 25.104 21.3269C24.3079 21.5311 23.4935 21.0378 23.3115 20.2375C23.2508 19.9707 23.269 19.7183 23.3456 19.4848C23.4141 19.264 23.2144 19.0507 23.0011 19.1104L19.6131 19.8877L20.3785 23.253C20.4298 23.4788 20.6963 23.558 20.8578 23.413C21.0557 23.238 21.296 23.1073 21.5629 23.0461C22.3068 22.897 23.0754 23.3792 23.264 24.1132C23.4666 24.9088 22.9714 25.7241 22.1706 25.9078C21.9037 25.9691 21.6512 25.9514 21.4179 25.8754C21.1971 25.8073 20.9834 26.0075 21.0427 26.2206L21.8128 29.6064L31.5458 27.3735L29.3255 17.6595Z" fill="#F5637D"/>
<path d="M32.0095 26.0303L20.9954 28.6002L21.4359 30.3991L26.9613 29.2427L32.4867 28.0862L32.0095 26.0303Z" fill="#E44C67"/>
</g>
<defs>
<linearGradient id="paint0_linear_101_779" x1="11.816" y1="9.14923" x2="22.2952" y2="18.5798" gradientUnits="userSpaceOnUse">
<stop stop-color="#1DA0F9"/>
<stop offset="1" stop-color="#59BCFF"/>
</linearGradient>
<linearGradient id="paint1_linear_101_779" x1="11.8161" y1="9.14923" x2="22.2953" y2="18.5798" gradientUnits="userSpaceOnUse">
<stop stop-color="#1DA0F9"/>
<stop offset="1" stop-color="#59BCFF"/>
</linearGradient>
<linearGradient id="paint2_linear_101_779" x1="19.6179" y1="19.8729" x2="12.118" y2="31.828" gradientUnits="userSpaceOnUse">
<stop stop-color="#E3A165"/>
<stop offset="1" stop-color="#FDBF7E"/>
</linearGradient>
<linearGradient id="paint3_linear_101_779" x1="19.6178" y1="19.8729" x2="12.1179" y2="31.8279" gradientUnits="userSpaceOnUse">
<stop stop-color="#E3A165"/>
<stop offset="1" stop-color="#FDBF7E"/>
</linearGradient>
</defs>
</svg>
