<svg width="40" height="40" viewBox="0 0 40 40" fill="none" xmlns="http://www.w3.org/2000/svg">
<path d="M11.2805 10.9424H14.7685V14.4303H11.2805V10.9424Z" fill="#B5C4EC"/>
<path d="M11.2805 14.4304H14.7685V17.9184H11.2805V14.4304Z" fill="#464772"/>
<path d="M11.2805 17.9183H14.7685V21.4063H11.2805V17.9183Z" fill="#B5C4EC"/>
<path d="M14.7684 10.9424H18.2564V14.4303H14.7684V10.9424Z" fill="#464772"/>
<path opacity="0.9" d="M14.7684 14.4304H18.2564V17.9184H14.7684V14.4304Z" fill="#B5C4EC"/>
<path d="M14.7684 17.9183H18.2564V21.4063H14.7684V17.9183Z" fill="#464772"/>
<path d="M18.2566 10.9424H21.7446V14.4303H18.2566V10.9424Z" fill="#B5C4EC"/>
<path d="M18.2566 14.4304H21.7446V17.9184H18.2566V14.4304Z" fill="#464772"/>
<path d="M18.2566 17.9183H21.7446V21.4063H18.2566V17.9183Z" fill="#B5C4EC"/>
<path d="M21.7446 10.9424H25.2326V14.4303H21.7446V10.9424Z" fill="#464772"/>
<path opacity="0.9" d="M21.7446 14.4304H25.2326V17.9184H21.7446V14.4304Z" fill="#B5C4EC"/>
<path d="M21.7446 17.9183H25.2326V21.4063H21.7446V17.9183Z" fill="#464772"/>
<path d="M25.2325 10.9424H28.7205V14.4303H25.2325V10.9424Z" fill="#B5C4EC"/>
<path d="M25.2325 14.4304H28.7205V17.9184H25.2325V14.4304Z" fill="#464772"/>
<path d="M25.2325 17.9183H28.7205V21.4063H25.2325V17.9183Z" fill="#B5C4EC"/>
<path fill-rule="evenodd" clip-rule="evenodd" d="M10.4609 10.1226C10.9136 10.1226 11.2806 10.4896 11.2806 10.9423V29.0578C11.2806 29.5105 10.9136 29.8775 10.4609 29.8775C10.0081 29.8775 9.64111 29.5105 9.64111 29.0578V10.9423C9.64111 10.4896 10.0081 10.1226 10.4609 10.1226Z" fill="url(#paint0_linear_101_849)"/>
<path fill-rule="evenodd" clip-rule="evenodd" d="M29.5392 10.1226C29.992 10.1226 30.359 10.4896 30.359 10.9423V29.0578C30.359 29.5105 29.992 29.8775 29.5392 29.8775C29.0865 29.8775 28.7195 29.5105 28.7195 29.0578V10.9423C28.7195 10.4896 29.0865 10.1226 29.5392 10.1226Z" fill="url(#paint1_linear_101_849)"/>
<defs>
<linearGradient id="paint0_linear_101_849" x1="10.4609" y1="10.1226" x2="10.4609" y2="29.8775" gradientUnits="userSpaceOnUse">
<stop stop-color="#E3A165"/>
<stop offset="1" stop-color="#FDBF7E"/>
</linearGradient>
<linearGradient id="paint1_linear_101_849" x1="29.5392" y1="10.1226" x2="29.5392" y2="29.8775" gradientUnits="userSpaceOnUse">
<stop stop-color="#E3A165"/>
<stop offset="1" stop-color="#FDBF7E"/>
</linearGradient>
</defs>
</svg>
