<svg width="40" height="40" viewBox="0 0 40 40" fill="none" xmlns="http://www.w3.org/2000/svg">
<mask id="mask0_101_735" style="mask-type:alpha" maskUnits="userSpaceOnUse" x="6" y="11" width="29" height="19">
<path d="M30.2066 12.4601C27.0869 10.018 25.5902 11.239 24.0034 11.8592C22.4165 12.4794 20.469 12.4601 20.469 12.4601C20.469 12.4601 18.5035 12.4794 16.9166 11.8592C15.3297 11.239 13.833 10.018 10.7134 12.4601C7.48558 15.0184 5.88068 20.174 6.00691 23.527C6.13314 26.88 7.28722 28.857 9.70358 29.3803C12.1199 29.9036 15.1855 26.6474 16.61 25.8722C17.133 25.5815 17.7821 25.3876 18.4133 25.252C19.7838 24.9419 21.1723 24.9419 22.5247 25.252C23.1558 25.3876 23.805 25.6008 24.328 25.8722C25.7525 26.6474 28.8181 29.923 31.2344 29.3803C33.6508 28.857 34.7868 26.88 34.9311 23.527C35.0393 20.174 33.4524 15.0184 30.2066 12.4601Z" fill="#808080"/>
</mask>
<g mask="url(#mask0_101_735)">
<path d="M30.2066 12.4601C27.0869 10.018 25.5902 11.239 24.0034 11.8592C22.4165 12.4794 20.469 12.4601 20.469 12.4601C20.469 12.4601 18.5035 12.4794 16.9166 11.8592C15.3297 11.239 13.833 10.018 10.7134 12.4601C7.48558 15.0184 5.88068 20.174 6.00691 23.527C6.13314 26.88 7.28722 28.857 9.70358 29.3803C12.1199 29.9036 15.1855 26.6474 16.61 25.8722C17.133 25.5815 17.7821 25.3876 18.4133 25.252C19.7838 24.9419 21.1723 24.9419 22.5247 25.252C23.1558 25.3876 23.805 25.6008 24.328 25.8722C25.7525 26.6474 28.8181 29.923 31.2344 29.3803C33.6508 28.857 34.7868 26.88 34.9311 23.527C35.0393 20.174 33.4524 15.0184 30.2066 12.4601Z" fill="url(#paint0_linear_101_735)"/>
<circle opacity="0.9" cx="14.2211" cy="19.0236" r="4.40763" fill="#079DFB"/>
<path opacity="0.3" d="M17.6902 13.1781C14.9162 11.322 12.8574 10.3636 12.1748 10.1163C15.8124 10.1163 17.3078 11.5719 20.2908 11.6229C23.2738 11.6739 23.5288 10.0676 26.8943 9.99112C29.5866 9.92993 31.9254 13.4841 32.7583 15.2688C31.9339 14.1214 29.709 11.8268 27.4042 11.8268C24.5231 11.8268 21.1577 15.4982 17.6902 13.1781Z" fill="#BAE4FF"/>
<circle opacity="0.9" cx="26.933" cy="19.0236" r="4.40763" fill="#079DFB"/>
<path d="M16.3002 17.9562H15.0081V16.6097C15.0081 16.0828 14.6008 15.6584 14.0952 15.6584C13.5896 15.6584 13.1822 16.0828 13.1822 16.6097V17.9562H11.8901C11.3845 17.9562 10.9772 18.3806 10.9772 18.9075C10.9772 19.4343 11.3845 19.8588 11.8901 19.8588H13.1822V21.2052C13.1822 21.7321 13.5896 22.1565 14.0952 22.1565C14.6008 22.1565 15.0081 21.7321 15.0081 21.2052V19.8588H16.3002C16.8059 19.8588 17.2132 19.4343 17.2132 18.9075C17.2132 18.3806 16.8059 17.9562 16.3002 17.9562Z" fill="url(#paint1_linear_101_735)"/>
<path d="M24.6687 17.8422C24.1065 17.8422 23.6453 18.3229 23.6453 18.9087C23.6453 19.4945 24.1065 19.9752 24.6687 19.9752C25.2309 19.9752 25.6922 19.4945 25.6922 18.9087C25.6922 18.3229 25.2309 17.8422 24.6687 17.8422Z" fill="url(#paint2_linear_101_735)"/>
<path d="M28.9356 17.8422C28.3734 17.8422 27.9121 18.3229 27.9121 18.9087C27.9121 19.4945 28.3734 19.9752 28.9356 19.9752C29.4978 19.9752 29.9591 19.4945 29.9591 18.9087C29.9591 18.3229 29.4978 17.8422 28.9356 17.8422Z" fill="url(#paint3_linear_101_735)"/>
<path d="M26.8022 15.6191C26.24 15.6191 25.7787 16.0998 25.7787 16.6856C25.7787 17.2714 26.24 17.7521 26.8022 17.7521C27.3644 17.7521 27.8256 17.2714 27.8256 16.6856C27.8256 16.0998 27.3644 15.6191 26.8022 15.6191Z" fill="url(#paint4_linear_101_735)"/>
<path d="M26.8022 20.0503C26.24 20.0503 25.7787 20.531 25.7787 21.1168C25.7787 21.7026 26.24 22.1833 26.8022 22.1833C27.3644 22.1833 27.8256 21.7026 27.8256 21.1168C27.8256 20.531 27.3644 20.0503 26.8022 20.0503Z" fill="url(#paint5_linear_101_735)"/>
<path opacity="0.9" d="M9.17963 24.2081C6.55565 21.5841 7.02254 18.3573 7.58398 17.0719L4.58276 20.2865L6.05178 30.0806H11.7347L16.9287 25.8221C15.439 26.3774 11.8036 26.8321 9.17963 24.2081Z" fill="#079DFB"/>
<path opacity="0.9" d="M31.8101 24.2081C34.4341 21.5841 33.9672 18.3573 33.4058 17.0719L36.407 20.2865L34.938 30.0806H29.2551L24.061 25.8221C25.5507 26.3774 29.1861 26.8321 31.8101 24.2081Z" fill="#079DFB"/>
</g>
<defs>
<linearGradient id="paint0_linear_101_735" x1="20.4681" y1="11" x2="20.4681" y2="29.4406" gradientUnits="userSpaceOnUse">
<stop offset="0.109375" stop-color="#22CDFE"/>
<stop offset="1" stop-color="#11B5FD"/>
</linearGradient>
<linearGradient id="paint1_linear_101_735" x1="14.0952" y1="15.6584" x2="14.0952" y2="22.1565" gradientUnits="userSpaceOnUse">
<stop stop-color="#262653"/>
<stop offset="1" stop-color="#3E3E68"/>
</linearGradient>
<linearGradient id="paint2_linear_101_735" x1="24.6687" y1="17.8422" x2="24.6687" y2="19.9752" gradientUnits="userSpaceOnUse">
<stop stop-color="#262653"/>
<stop offset="1" stop-color="#3E3E68"/>
</linearGradient>
<linearGradient id="paint3_linear_101_735" x1="28.9356" y1="17.8422" x2="28.9356" y2="19.9752" gradientUnits="userSpaceOnUse">
<stop stop-color="#262653"/>
<stop offset="1" stop-color="#3E3E68"/>
</linearGradient>
<linearGradient id="paint4_linear_101_735" x1="26.8022" y1="15.6191" x2="26.8022" y2="17.7521" gradientUnits="userSpaceOnUse">
<stop stop-color="#262653"/>
<stop offset="1" stop-color="#3E3E68"/>
</linearGradient>
<linearGradient id="paint5_linear_101_735" x1="26.8022" y1="20.0503" x2="26.8022" y2="22.1833" gradientUnits="userSpaceOnUse">
<stop stop-color="#262653"/>
<stop offset="1" stop-color="#3E3E68"/>
</linearGradient>
</defs>
</svg>
